<svg xmlns="http://www.w3.org/2000/svg" viewBox="0 0 247.79 248.12"><defs><style>.cls-1{fill:#0a9cfc;}</style></defs><title>AppBuilderLogoMin</title><g id="Layer_2" data-name="Layer 2"><g id="Layer_2-2" data-name="Layer 2"><path class="cls-1" d="M.07,247.72c1.74-18.51,9.9-32.92,24.19-44.06.94-.73,1.4-3.72.71-4.67C-29.27,124.48,9.1,22.82,99.15,2.74,166.75-12.32,236.84,36.45,246.4,105.3c4.78,34.37-2.74,65.7-23.48,93.75-.68.91-.15,3.92.82,4.68,13.44,10.6,21.86,24,23.55,41.23.09,1-1.6,3-2.47,3q-121,.21-242,.12A22,22,0,0,1,.07,247.72ZM124,192.47a68.23,68.23,0,1,0-68.37-68.41A68.38,68.38,0,0,0,124,192.47Z"/></g></g></svg>