<svg xmlns="http://www.w3.org/2000/svg" viewBox="0 0 1581.92 277.2"><defs><style>.cls-1{fill:#0a9cfc;}.cls-2{fill:#333;}</style></defs><title>Asset 3</title><g id="Layer_2" data-name="Layer 2"><g id="Layer_2-2" data-name="Layer 2"><path class="cls-1" d="M465.78,213a33.28,33.28,0,0,1-24.19-13.27,2.63,2.63,0,0,0-2.56-.39c-40.9,29.78-96.72,8.71-107.74-40.73C323,121.53,349.8,83.06,387.6,77.8c18.87-2.62,36.06,1.51,51.46,12.9a2.69,2.69,0,0,0,2.57-.45c5.82-7.38,13.18-12,22.64-12.93.53,0,1.66.88,1.66,1.35q.12,66.42.07,132.84A11.07,11.07,0,0,1,465.78,213Zm-30.33-68a37.46,37.46,0,1,0-37.55,37.54A37.53,37.53,0,0,0,435.45,145Z"/><path class="cls-1" d="M483.8,275.68c0-44.28,0-152.73.06-197,0-.47,1.14-1.4,1.67-1.35,9.45.93,16.81,5.55,22.63,12.93a2.69,2.69,0,0,0,2.57.45c15.4-11.39,32.6-15.52,51.47-12.9,37.79,5.26,64.57,43.73,56.3,80.84-11,49.44-66.83,70.51-107.74,40.73a2.7,2.7,0,0,0-2.16.1c-.17.08-.31,64.35-.4,64.45A33.26,33.26,0,0,1,484,277.2,12.58,12.58,0,0,1,483.8,275.68Zm68.1-93.13A37.51,37.51,0,1,0,514.35,145,37.55,37.55,0,0,0,551.9,182.55Z"/><path class="cls-1" d="M630.68,275.68c0-44.28,0-152.73.06-197,0-.47,1.13-1.4,1.66-1.35,9.46.93,16.82,5.55,22.64,12.93a2.69,2.69,0,0,0,2.57.45C673,79.31,690.2,75.18,709.08,77.8c37.79,5.26,64.57,43.73,56.3,80.84-11,49.44-66.83,70.51-107.74,40.73a2.7,2.7,0,0,0-2.16.1c-.18.08-.32,64.35-.4,64.45a33.26,33.26,0,0,1-24.19,13.28A10.84,10.84,0,0,1,630.68,275.68Zm68.1-93.13A37.51,37.51,0,1,0,661.22,145,37.55,37.55,0,0,0,698.78,182.55Z"/><path class="cls-2" d="M857.07,209.45a54.15,54.15,0,0,1-28.83-8.22,62.23,62.23,0,0,1-21-20.61v26.3H795.61V22.29h12.64v82.2a83.15,83.15,0,0,1,22.14-22.26q12.76-8.6,29.46-8.6A53.27,53.27,0,0,1,885,79.43a59.3,59.3,0,0,1,18.84,15.62,73.38,73.38,0,0,1,12,21.93,76,76,0,0,1,4.18,24.94,70.39,70.39,0,0,1-18.21,47.25,64,64,0,0,1-20,14.86A56.78,56.78,0,0,1,857.07,209.45Zm-2.53-11.38a48,48,0,0,0,21.24-4.66,51,51,0,0,0,16.57-12.71,62,62,0,0,0,10.88-18.13,56.54,56.54,0,0,0,3.92-20.65,62.57,62.57,0,0,0-6.33-27.82,54.56,54.56,0,0,0-17.7-21,44.39,44.39,0,0,0-26.3-8,43.44,43.44,0,0,0-20.49,4.91A57.21,57.21,0,0,0,820,102.64a82.78,82.78,0,0,0-11.77,17.12v43.31a30.79,30.79,0,0,0,5.57,13.72,43.46,43.46,0,0,0,11.51,11.08A66.58,66.58,0,0,0,840,195.3,43,43,0,0,0,854.54,198.07Z"/><path class="cls-2" d="M949.13,151.39V75.66h12.65v74q0,24.48,8.22,36.47t24.91,12a48.78,48.78,0,0,0,21.37-4.92,56.15,56.15,0,0,0,18.08-13.88A58.06,58.06,0,0,0,1046,158.46V75.66h12.64V190.24a6.57,6.57,0,0,0,1.39,4.55,5.87,5.87,0,0,0,3.93,1.76v10.37c-1.69.17-3,.25-3.93.25a9.94,9.94,0,0,1-2.4-.25,10.71,10.71,0,0,1-7.08-3.66,12.27,12.27,0,0,1-3-7.7l-.25-19.68a63.89,63.89,0,0,1-23.65,24.61,62.34,62.34,0,0,1-32.5,9q-20.73,0-31.36-14.64T949.13,151.39Z"/><path class="cls-2" d="M1098.86,45.56V22.29h12.64V45.56Zm0,161.36V75.4h12.64V206.92Z"/><path class="cls-2" d="M1152.22,22.29h12.9v159.5q0,9.17,3.79,12.59a14.14,14.14,0,0,0,9.86,3.44,48.64,48.64,0,0,0,8.35-.76,42.06,42.06,0,0,0,7.59-2l2.53,10.36a78.89,78.89,0,0,1-10.63,2.79,56.84,56.84,0,0,1-10.87,1.26q-10.62,0-17.07-6.48t-6.45-17.42Z"/><path class="cls-2" d="M1207.6,141.67a73.22,73.22,0,0,1,7.84-33.77,66.32,66.32,0,0,1,21.5-24.82,53.38,53.38,0,0,1,31.11-9.45,52.64,52.64,0,0,1,30.48,9.11,70.08,70.08,0,0,1,20.86,21.75V22.29H1332V190.23a6.52,6.52,0,0,0,1.39,4.55,5.83,5.83,0,0,0,3.92,1.77v10.37a26.41,26.41,0,0,1-6.07.25,12.4,12.4,0,0,1-7.59-4.29,11.48,11.48,0,0,1-3-7.59V180.62a60.4,60.4,0,0,1-21.75,21,55.72,55.72,0,0,1-28.08,7.84,56.94,56.94,0,0,1-25.29-5.67,63.89,63.89,0,0,1-20.11-15.24,71.15,71.15,0,0,1-13.15-21.67A69.21,69.21,0,0,1,1207.6,141.67Zm111.79,21.15V119.76a49,49,0,0,0-11.38-17.5,62.07,62.07,0,0,0-17.7-12.59A45.44,45.44,0,0,0,1270.83,85a44.11,44.11,0,0,0-20.61,4.78,51,51,0,0,0-15.93,12.84A58.13,58.13,0,0,0,1224,120.9a63.68,63.68,0,0,0-3.54,21,57.13,57.13,0,0,0,4,21.28,59.1,59.1,0,0,0,11.25,18.13,51.94,51.94,0,0,0,16.7,12.33,48.26,48.26,0,0,0,20.61,4.41,43,43,0,0,0,14.54-2.77,61.62,61.62,0,0,0,14.67-7.68A49.81,49.81,0,0,0,1314,176.29,27.73,27.73,0,0,0,1319.39,162.82Z"/><path class="cls-2" d="M1428.14,209.45a61.3,61.3,0,0,1-25.79-5.42,63.68,63.68,0,0,1-20.62-14.86,70,70,0,0,1-13.65-21.92,71,71,0,0,1-4.94-26.34,68.72,68.72,0,0,1,8.35-33.76,65.91,65.91,0,0,1,23-24.32,60.61,60.61,0,0,1,32.88-9.2q18.7,0,33.13,9.33a68.56,68.56,0,0,1,31.36,58v3a11,11,0,0,1-.25,2.51H1376.3a58.71,58.71,0,0,0,8.34,26.94,55.16,55.16,0,0,0,18.85,19,47.94,47.94,0,0,0,25.16,6.91,50.41,50.41,0,0,0,25.8-7.08q12.13-7.08,16.94-18.21l11.13,3a44.85,44.85,0,0,1-12,16.69,61.1,61.1,0,0,1-19.22,11.51A64.78,64.78,0,0,1,1428.14,209.45Zm-52.35-72.84h104a59.82,59.82,0,0,0-8.09-27.18,52.66,52.66,0,0,0-18.59-18.63,49.11,49.11,0,0,0-25.42-6.8,48.36,48.36,0,0,0-25.29,6.8,52.91,52.91,0,0,0-18.47,18.63A59.69,59.69,0,0,0,1375.79,136.61Z"/><path class="cls-2" d="M1581.92,86.79a52.76,52.76,0,0,0-31,10.49q-13.28,10-18.59,27.44v82.2H1519.7V75.66h12.14v32.12a62.93,62.93,0,0,1,18.21-22.64q11.39-8.73,24-10c1.68-.16,3.2-.25,4.55-.25h3.29Z"/><path class="cls-1" d="M.07,247.72c1.74-18.51,9.9-32.92,24.19-44.06.94-.73,1.4-3.72.71-4.67C-29.27,124.48,9.1,22.82,99.15,2.74,166.75-12.32,236.84,36.45,246.4,105.3c4.78,34.37-2.74,65.7-23.48,93.75-.68.91-.15,3.92.82,4.68,13.44,10.6,21.86,24,23.55,41.23.09,1-1.6,3-2.47,3q-121,.21-242,.12A22,22,0,0,1,.07,247.72ZM124,192.47a68.23,68.23,0,1,0-68.37-68.41A68.38,68.38,0,0,0,124,192.47Z"/></g></g></svg>