<svg width="13" height="13" viewBox="0 0 13 13" fill="none" xmlns="http://www.w3.org/2000/svg">
<g clip-path="url(#clip0)">
<path d="M11.0989 6.13183V6.61053C11.0983 7.73257 10.746 8.82434 10.0946 9.72302C9.44318 10.6217 8.52756 11.2791 7.48429 11.5973C6.44101 11.9154 5.32597 11.8772 4.30546 11.4884C3.28495 11.0995 2.41366 10.3809 1.82153 9.43957C1.22939 8.49829 0.948143 7.38481 1.01973 6.2652C1.09131 5.14559 1.51188 4.07984 2.21873 3.22689C2.92558 2.37395 3.88083 1.77951 4.942 1.53223C6.00318 1.28495 7.11343 1.39808 8.10717 1.85476" stroke="white" stroke-width="2" stroke-linecap="round" stroke-linejoin="round"/>
<path d="M11.0996 2.44775L6.05453 7.65621L4.54102 6.09523" stroke="white" stroke-width="2" stroke-linecap="round" stroke-linejoin="round"/>
</g>
<defs>
<clipPath id="clip0">
<rect width="12.1081" height="12.4878" fill="white" transform="translate(0 0.366699)"/>
</clipPath>
</defs>
</svg>
