<svg width="20" height="20" viewBox="0 0 20 20" fill="none" xmlns="http://www.w3.org/2000/svg">
<g clip-path="url(#clip0)">
<path d="M12.6086 0.381836V5.21706H17.4439L12.6086 0.381836Z" fill="#29A9F9"/>
<path d="M11.9564 6.52176C11.5964 6.52176 11.3043 6.22961 11.3043 5.86957V0H2.82602C2.46598 0 2.17383 0.292148 2.17383 0.652187V19.3479C2.17383 19.7079 2.46598 20 2.82602 20H17.1738C17.5339 20 17.826 19.7079 17.826 19.3479V6.52176H11.9564ZM10.6521 16.087H5.43469C5.07465 16.087 4.7825 15.7948 4.7825 15.4348C4.7825 15.0747 5.07465 14.7826 5.43469 14.7826H10.6521C11.0121 14.7826 11.3043 15.0747 11.3043 15.4348C11.3043 15.7948 11.0121 16.087 10.6521 16.087ZM14.5652 13.4782H5.43469C5.07465 13.4782 4.7825 13.1861 4.7825 12.8261C4.7825 12.466 5.07465 12.1739 5.43469 12.1739H14.5652C14.9252 12.1739 15.2173 12.466 15.2173 12.8261C15.2173 13.1861 14.9252 13.4782 14.5652 13.4782ZM14.5652 10.8696H5.43469C5.07465 10.8696 4.7825 10.5774 4.7825 10.2174C4.7825 9.85734 5.07465 9.5652 5.43469 9.5652H14.5652C14.9252 9.5652 15.2173 9.85734 15.2173 10.2174C15.2173 10.5774 14.9252 10.8696 14.5652 10.8696Z" fill="#29A9F9"/>
</g>
<defs>
<clipPath id="clip0">
<rect width="20" height="20" fill="white"/>
</clipPath>
</defs>
</svg>
