<?xml version="1.0" encoding="utf-8"?>
<!-- Generator: Adobe Illustrator 25.2.1, SVG Export Plug-In . SVG Version: 6.00 Build 0)  -->
<svg version="1.1" id="Layer_1" xmlns="http://www.w3.org/2000/svg" xmlns:xlink="http://www.w3.org/1999/xlink" x="0px" y="0px"
	 viewBox="0 0 200 200" style="enable-background:new 0 0 200 200;height: fit-content;width: auto;" xml:space="preserve">
<style type="text/css">
	.st0{fill:#099DFD;}
</style>
<g>
	<g>
		<g>
			<path class="st0" d="M165,168.3c1.9,0,3.5-1.5,3.5-3.5v-130c0-1.9-1.5-3.5-3.5-3.5s-3.5,1.5-3.5,3.5v130
				C161.5,166.8,163.1,168.3,165,168.3z"/>
			<path class="st0" d="M165,169.3c-2.5,0-4.5-2-4.5-4.5v-130c0-2.5,2-4.5,4.5-4.5c2.5,0,4.5,2,4.5,4.5v130
				C169.4,167.3,167.4,169.3,165,169.3z M165,32.4c-1.4,0-2.5,1.1-2.5,2.5v130c0,1.4,1.1,2.5,2.5,2.5s2.5-1.1,2.5-2.5v-130
				C167.4,33.5,166.3,32.4,165,32.4z"/>
		</g>
	</g>
	<g>
		<g>
			<path class="st0" d="M121.7,168.3c1.9,0,3.5-1.5,3.5-3.5v-130c0-1.9-1.5-3.5-3.5-3.5c-1.9,0-3.5,1.5-3.5,3.5v130
				C118.2,166.8,119.7,168.3,121.7,168.3z"/>
			<path class="st0" d="M121.7,169.3c-2.5,0-4.5-2-4.5-4.5v-130c0-2.5,2-4.5,4.5-4.5c2.5,0,4.5,2,4.5,4.5v130
				C126.1,167.3,124.1,169.3,121.7,169.3z M121.7,32.4c-1.4,0-2.5,1.1-2.5,2.5v130c0,1.4,1.1,2.5,2.5,2.5s2.5-1.1,2.5-2.5v-130
				C124.1,33.5,123,32.4,121.7,32.4z"/>
		</g>
	</g>
	<g>
		<g>
			<path class="st0" d="M78.4,168.3c1.9,0,3.5-1.5,3.5-3.5V78.2c0-1.9-1.5-3.5-3.5-3.5c-1.9,0-3.5,1.5-3.5,3.5v86.7
				C74.9,166.8,76.5,168.3,78.4,168.3z"/>
			<path class="st0" d="M78.4,169.3c-2.5,0-4.5-2-4.5-4.5V78.2c0-2.5,2-4.5,4.5-4.5c2.5,0,4.5,2,4.5,4.5v86.7
				C82.8,167.3,80.8,169.3,78.4,169.3z M78.4,75.7c-1.4,0-2.5,1.1-2.5,2.5v86.7c0,1.4,1.1,2.5,2.5,2.5s2.5-1.1,2.5-2.5V78.2
				C80.8,76.8,79.7,75.7,78.4,75.7z"/>
		</g>
	</g>
	<g>
		<g>
			<path class="st0" d="M35.1,168.3c1.9,0,3.5-1.5,3.5-3.5v-43.7c0-1.9-1.5-3.5-3.5-3.5s-3.5,1.5-3.5,3.5v43.7
				C31.6,166.8,33.2,168.3,35.1,168.3z"/>
			<path class="st0" d="M35.1,169.3c-2.5,0-4.5-2-4.5-4.5v-43.7c0-2.5,2-4.5,4.5-4.5s4.5,2,4.5,4.5v43.7
				C39.5,167.3,37.5,169.3,35.1,169.3z M35.1,118.7c-1.4,0-2.5,1.1-2.5,2.5v43.7c0,1.4,1.1,2.5,2.5,2.5s2.5-1.1,2.5-2.5v-43.7
				C37.5,119.8,36.4,118.7,35.1,118.7z"/>
		</g>
	</g>
	<g>
		<g>
			<path class="st0" d="M121.7,38.3H165c1.9,0,3.5-1.5,3.5-3.5s-1.5-3.5-3.5-3.5h-43.4c-1.9,0-3.5,1.5-3.5,3.5
				S119.7,38.3,121.7,38.3z"/>
			<path class="st0" d="M165,39.3h-43.4c-2.5,0-4.5-2-4.5-4.5s2-4.5,4.5-4.5H165c2.5,0,4.5,2,4.5,4.5S167.5,39.3,165,39.3z
				 M121.7,32.4c-1.4,0-2.5,1.1-2.5,2.5s1.1,2.5,2.5,2.5H165c1.4,0,2.5-1.1,2.5-2.5s-1.1-2.5-2.5-2.5H121.7z"/>
		</g>
	</g>
	<g>
		<g>
			<path class="st0" d="M78.4,81.6H165c1.9,0,3.5-1.5,3.5-3.5s-1.5-3.5-3.5-3.5H78.4c-1.9,0-3.5,1.5-3.5,3.5S76.5,81.6,78.4,81.6z"
				/>
			<path class="st0" d="M165,82.6H78.4c-2.5,0-4.5-2-4.5-4.5s2-4.5,4.5-4.5H165c2.5,0,4.5,2,4.5,4.5S167.5,82.6,165,82.6z
				 M78.4,75.7c-1.4,0-2.5,1.1-2.5,2.5s1.1,2.5,2.5,2.5H165c1.4,0,2.5-1.1,2.5-2.5s-1.1-2.5-2.5-2.5H78.4z"/>
		</g>
	</g>
	<g>
		<g>
			<path class="st0" d="M35.1,124.9h130c1.9,0,3.5-1.5,3.5-3.5s-1.5-3.5-3.5-3.5h-130c-1.9,0-3.5,1.5-3.5,3.5S33.2,124.9,35.1,124.9
				z"/>
			<path class="st0" d="M165,125.9h-130c-2.5,0-4.5-2-4.5-4.5c0-2.5,2-4.5,4.5-4.5h130c2.5,0,4.5,2,4.5,4.5
				C169.5,123.9,167.5,125.9,165,125.9z M35.1,119c-1.4,0-2.5,1.1-2.5,2.5s1.1,2.5,2.5,2.5h130c1.4,0,2.5-1.1,2.5-2.5
				s-1.1-2.5-2.5-2.5H35.1z"/>
		</g>
	</g>
	<g>
		<g>
			<path class="st0" d="M35.1,168.2h130c1.9,0,3.5-1.5,3.5-3.5s-1.5-3.5-3.5-3.5h-130c-1.9,0-3.5,1.5-3.5,3.5S33.2,168.2,35.1,168.2
				z"/>
			<path class="st0" d="M165,169.2h-130c-2.5,0-4.5-2-4.5-4.5s2-4.5,4.5-4.5h130c2.5,0,4.5,2,4.5,4.5S167.5,169.2,165,169.2z
				 M35.1,162.3c-1.4,0-2.5,1.1-2.5,2.5s1.1,2.5,2.5,2.5h130c1.4,0,2.5-1.1,2.5-2.5s-1.1-2.5-2.5-2.5H35.1z"/>
		</g>
	</g>
</g>
</svg>
