<svg width="280" height="154" viewBox="0 0 280 154" fill="none" xmlns="http://www.w3.org/2000/svg">
<path d="M0 8.00001C0 3.58173 3.58172 0 8 0H272C276.418 0 280 3.58172 280 8V153.754H0V8.00001Z" fill="#E7F5FF"/>
<path d="M135.071 60H118.643C117.735 60 117 60.7348 117 61.6429V78.0714C117 78.9795 117.735 79.7143 118.643 79.7143H135.071C135.979 79.7143 136.714 78.9795 136.714 78.0714V73.1429V61.6429C136.714 60.7348 135.979 60 135.071 60ZM133.429 76.4286H120.286V63.2857H133.429V76.4286Z" fill="#0A9DFC"/>
<path d="M135.071 86.2856H118.643C117.735 86.2856 117 87.0204 117 87.9285V104.357C117 105.265 117.735 106 118.643 106H135.071C135.979 106 136.714 105.265 136.714 104.357V87.9285C136.714 87.0204 135.979 86.2856 135.071 86.2856ZM133.429 102.714H120.286V89.5714H133.429V102.714Z" fill="#0A9DFC"/>
<path d="M161.358 86.2856H149.858H144.929C144.021 86.2856 143.286 87.0204 143.286 87.9285V104.357C143.286 105.265 144.021 106 144.929 106H161.358C162.266 106 163 105.265 163 104.357V87.9285C163 87.0204 162.266 86.2856 161.358 86.2856ZM159.715 102.714H146.572V89.5714H159.715V102.714Z" fill="#0A9DFC"/>
<path d="M162.518 74.3044C163.16 73.6627 163.16 72.623 162.518 71.9813L151.018 60.4813C150.377 59.8396 149.337 59.8396 148.695 60.4813L137.195 71.9813C136.874 72.3022 136.714 72.7225 136.714 73.1428C136.714 73.5632 136.874 73.9835 137.195 74.3044L148.695 85.8044C149.016 86.1253 149.436 86.2857 149.857 86.2857C150.277 86.2857 150.697 86.1253 151.018 85.8044L162.518 74.3044ZM140.68 73.1428L149.857 63.9659L159.034 73.1428L149.857 82.3197L140.68 73.1428Z" fill="#0A9DFC"/>
</svg>
